<svg width="24" height="24" viewBox="0 0 24 24" fill="none" xmlns="http://www.w3.org/2000/svg">
<mask id="mask0_7_33" style="mask-type:alpha" maskUnits="userSpaceOnUse" x="0" y="0" width="24" height="24">
<rect width="24" height="24" fill="#D9D9D9"/>
</mask>
<g mask="url(#mask0_7_33)">
<path d="M21.375 8.625L20 8L21.375 7.375L22 6L22.625 7.375L24 8L22.625 8.625L22 10L21.375 8.625ZM18.05 3.95L16 3L18.05 2.05L19 0L19.95 2.05L22 3L19.95 3.95L19 6L18.05 3.95ZM9 22C8.45 22 7.97933 21.8043 7.588 21.413C7.196 21.021 7 20.55 7 20H11C11 20.55 10.8043 21.021 10.413 21.413C10.021 21.8043 9.55 22 9 22ZM6 19C5.71667 19 5.479 18.904 5.287 18.712C5.09567 18.5207 5 18.2833 5 18C5 17.7167 5.09567 17.4793 5.287 17.288C5.479 17.096 5.71667 17 6 17H12C12.2833 17 12.521 17.096 12.713 17.288C12.9043 17.4793 13 17.7167 13 18C13 18.2833 12.9043 18.5207 12.713 18.712C12.521 18.904 12.2833 19 12 19H6ZM5.25 16C4.1 15.3167 3.18767 14.4 2.513 13.25C1.83767 12.1 1.5 10.85 1.5 9.5C1.5 7.41667 2.22933 5.646 3.688 4.188C5.146 2.72933 6.91667 2 9 2C11.0833 2 12.854 2.72933 14.312 4.188C15.7707 5.646 16.5 7.41667 16.5 9.5C16.5 10.85 16.1627 12.1 15.488 13.25C14.8127 14.4 13.9 15.3167 12.75 16H5.25ZM5.85 14H12.15C12.9 13.4667 13.479 12.8083 13.887 12.025C14.2957 11.2417 14.5 10.4 14.5 9.5C14.5 7.96667 13.9667 6.66667 12.9 5.6C11.8333 4.53333 10.5333 4 9 4C7.46667 4 6.16667 4.53333 5.1 5.6C4.03333 6.66667 3.5 7.96667 3.5 9.5C3.5 10.4 3.70433 11.2417 4.113 12.025C4.521 12.8083 5.1 13.4667 5.85 14Z" fill="#1C1B1F"/>
</g>
</svg>
